<svg preserveAspectRatio="none" viewBox="0 0 390 750" fill="none"
    xmlns="http://www.w3.org/2000/svg">
    <path
        d="M390 15.5705H374.415V31.1411H358.793V15.5705V0H343.17H327.585H312V15.5705H296.415H280.83V0H265.207V15.5705H249.622V31.1411H234.037V15.5705H218.452V0H202.867V15.5705H187.245V31.1411H171.66V15.5705V0H156.075V15.5705H140.49V0H124.905H109.282V15.5705H93.6972H78.1121V31.1411H62.415V15.5705V0H46.8299V15.5705H31.2075H15.5851H0V31.1411V46.7116V62.2822V77.8527V93.4233V109.031V124.602V140.172V155.743V171.313V186.884V202.454V218.025V233.596V249.166V625.286V640.857V656.427V671.998V687.568V703.139V718.71V734.28H15.5851V749.851H31.1701V734.28H46.7925V749.851H62.415V734.28H78V718.71H93.5851V734.28V749.851H109.17H124.793H140.378V734.28H155.963H171.548V749.851H187.133V734.28H202.755V718.71H218.34V734.28H233.925V749.851H249.51V734.28H265.095V718.71H280.718V734.28V749.851H296.303V734.28H311.888V749.851H327.473H343.058V734.28H358.793H374.378V718.71H389.963"
        fill="#FFBE53" />
</svg>
    