<svg width="1920" height="1043" viewBox="0 0 1920 1043" fill="none"
    xmlns="http://www.w3.org/2000/svg">
    <path
        d="M1878.27 41.7149V0H1836.53V41.7149H1794.8V0H1753.04V41.7149H1711.3V83.4299H1669.57V41.7149H1627.84V0H1586.1V41.7149H1544.34V0H1502.61V41.7149H1460.87H1419.14V0H1377.41V41.7149H1335.65V0H1293.91V41.7149H1252.18V83.4299H1210.44V41.7149H1168.71V0H1126.95V41.7149H1085.22V0H1043.48V41.7149H1001.75V83.4299H960.013V41.7149V0H918.253H876.519H834.785V41.7149H793.051H751.316V0H709.557V41.7149H667.823V83.4299H626.089V41.7149H584.354V0H542.62V41.7149H500.861V83.4299H459.127V41.7149V0H417.392V41.7149H375.658V0H333.924H292.165V41.7149H250.43H208.696V83.4299H166.962V41.7149V0H125.228V41.7149H83.4684H41.7342H0V83.4299V125.17V166.885V208.6V250.315V292.03V333.77V375.485V417.2V458.915V500.63V542.37V584.085V625.8V667.515V709.23V750.97V792.685V834.4V876.115V917.83V959.57V1001.29H41.7342V1043H83.4684V1001.29H125.228V1043H166.962V1001.29H208.696V959.57H250.43V1001.29V1043H292.165H333.924H375.658V1001.29H417.392H459.127V1043H500.861V1001.29H542.62V959.57H584.354V1001.29H626.089V1043H667.823V1001.29H709.557V959.57H751.316V1001.29V1043H793.051V1001.29H834.785V1043H876.519H918.253V1001.29H960.013H1001.75V959.57H1043.48V1001.29V1043H1085.22V1001.29H1126.95H1168.71H1210.44H1252.18V959.57H1293.91V1001.29V1043H1335.65V1001.29H1377.41H1419.14H1460.87V959.57H1502.61V1001.29V1043H1544.34V1001.29H1586.1H1627.84H1669.57H1711.3V959.57H1753.04V1001.29V1043H1794.8V1001.29H1836.53H1878.27H1920V959.57V917.83V876.115V834.4V792.685V750.97V709.23V667.515V625.8V584.085V542.37V500.63V458.915V417.2V375.485V333.77V292.03V250.315V208.6V166.885V125.17V83.4299V41.7149H1878.27Z"
        fill="#FFBE53" />
</svg>
    