<svg width="234" height="62" viewBox="0 0 234 62" fill="none" xmlns="http://www.w3.org/2000/svg">
    <path
        d="M1.85102e-05 24.8081L1.95946e-05 12.404L24.6401 12.404L24.6401 7.70659e-07L36.9601 1.84771e-06L36.9601 12.404L73.9 12.404L73.9 5.0771e-06L98.5401 7.2312e-06L98.5401 12.404L160.1 12.4041L160.1 1.26129e-05L172.42 1.369e-05L172.42 12.4041L221.68 12.4041L221.68 24.8081L234 24.8081L234 49.596L172.42 49.596L172.42 62L147.8 62L147.8 49.5959L49.2801 49.5959L49.2801 62L36.9601 62L36.9601 49.5959L12.32 49.5959L12.32 24.8081L1.85102e-05 24.8081Z"
        fill="#262626" />
</svg>
    