<svg width="44" height="44" viewBox="0 0 44 44" fill="none" xmlns="http://www.w3.org/2000/svg">
    <rect width="44" height="44" rx="22" fill="white" fill-opacity="0.3" />
    <g clip-path="url(#clip0_308_7332)">
        <path
            d="M10.8569 31.4285V12.5714C10.8569 12.1167 11.0375 11.6807 11.359 11.3592C11.6805 11.0377 12.1166 10.8571 12.5712 10.8571H31.4284C31.883 10.8571 32.3191 11.0377 32.6405 11.3592C32.962 11.6807 33.1426 12.1167 33.1426 12.5714V31.4285C33.1426 31.8832 32.962 32.3192 32.6405 32.6407C32.3191 32.9622 31.883 33.1428 31.4284 33.1428H26.2855V25.0171H27.5026C27.78 25.0171 28.046 24.9069 28.2421 24.7108C28.4382 24.5147 28.5484 24.2487 28.5484 23.9714V22.6514C28.5484 22.3741 28.4382 22.1081 28.2421 21.912C28.046 21.7159 27.78 21.6057 27.5026 21.6057H26.3541V19.9943C26.3541 18.5543 27.0055 18.5543 27.6569 18.5543H28.4969C28.6349 18.5599 28.7724 18.5353 28.8998 18.4819C29.0272 18.4286 29.1413 18.348 29.2341 18.2457C29.3337 18.1508 29.4126 18.0364 29.4657 17.9095C29.5188 17.7826 29.545 17.6461 29.5426 17.5085V16.24C29.5472 16.1004 29.5242 15.9613 29.475 15.8305C29.4258 15.6998 29.3513 15.5801 29.2558 15.4782C29.1602 15.3763 29.0456 15.2943 28.9183 15.2367C28.791 15.1792 28.6537 15.1473 28.5141 15.1428H26.5426C25.9674 15.1212 25.3943 15.2247 24.863 15.4462C24.3317 15.6677 23.8548 16.0018 23.4652 16.4256C23.0756 16.8494 22.7827 17.3527 22.6067 17.9008C22.4306 18.4488 22.3756 19.0286 22.4455 19.6V21.6057H21.3484C21.2096 21.6034 21.0718 21.6288 20.9429 21.6803C20.8141 21.7318 20.6967 21.8085 20.5978 21.9058C20.4989 22.0032 20.4203 22.1192 20.3667 22.2472C20.3131 22.3752 20.2855 22.5126 20.2855 22.6514V23.9714C20.2855 24.1102 20.3131 24.2476 20.3667 24.3756C20.4203 24.5036 20.4989 24.6196 20.5978 24.717C20.6967 24.8143 20.8141 24.891 20.9429 24.9425C21.0718 24.994 21.2096 25.0194 21.3484 25.0171H22.4455V33.1428H12.5712C12.1166 33.1428 11.6805 32.9622 11.359 32.6407C11.0375 32.3192 10.8569 31.8832 10.8569 31.4285Z"
            stroke="white" stroke-width="1.71429" stroke-linecap="round" stroke-linejoin="round" />
    </g>
    <defs>
        <clipPath id="clip0_308_7332">
            <rect width="24" height="24" fill="white" transform="translate(10 10)" />
        </clipPath>
    </defs>
</svg>
    