<svg width="136" height="66" viewBox="0 0 136 66" fill="none" xmlns="http://www.w3.org/2000/svg">
    <g clip-path="url(#clip0_141_2596)">
        <path
            d="M19.991 7.99445V11.9917H23.9892V27.9806H15.9928V11.9917H7.99641V27.9806H0V0H19.991V3.99723H23.9892V7.99445H19.991ZM15.9928 3.99723H7.99641V7.99445H15.9928V3.99723Z"
            fill="#FFF7F7" />
        <path
            d="M35.9838 7.99445H43.9802V11.9917H35.9838V23.9834H51.9767V27.9806H27.9874V0H51.9767V3.99723H35.9838V7.99445Z"
            fill="#FFF7F7" />
        <path d="M79.9946 3.99723H71.9982V27.9806H64.0018V3.99723H56.0054V0H79.9946V3.99723Z"
            fill="#FFF7F7" />
        <path
            d="M103.984 7.99445V11.9917H107.982V27.9806H99.9856V11.9917H91.9892V27.9806H83.9928V0H103.984V3.99723H107.982V7.99445H103.984ZM99.9856 3.99723H91.9892V7.99445H99.9856V3.99723Z"
            fill="#FFF7F7" />
        <path
            d="M136 3.99723V23.9834H132.002V27.9806H116.009V23.9834H112.011V3.99723H116.009V0H132.002V3.99723H136ZM128.004 3.99723H120.007V23.9834H128.004V3.99723Z"
            fill="#FFF7F7" />
        <path
            d="M15.9928 42.0168H7.99641V62.0029H15.9928V58.0057H23.9892V62.0029H19.991V66.0001H3.9982V62.0029H0V42.0168H3.9982V38.0195H19.991V42.0168H23.9892V46.014H15.9928V42.0168Z"
            fill="#FFF7F7" />
        <path
            d="M48.009 46.014V50.0112H52.0072V66.0001H44.0108V50.0112H36.0144V66.0001H27.9874V38.0195H47.9784V42.0168H51.9767V46.014H48.009ZM44.0108 42.0168H36.0144V46.014H44.0108V42.0168Z"
            fill="#FFF7F7" />
        <path
            d="M79.9946 42.0168V66.0001H71.9982V50.0112H64.0018V66.0001H56.0054V42.0168H60.0036V38.0195H75.9964V42.0168H79.9946ZM71.9982 42.0168H64.0018V46.014H71.9982V42.0168Z"
            fill="#FFF7F7" />
        <path
            d="M107.982 42.0168H91.9892V46.014H99.9856V50.0112H91.9892V66.0001H83.9928V38.0195H107.982V42.0168Z"
            fill="#FFF7F7" />
        <path d="M136 42.0168H128.004V66.0001H120.007V42.0168H112.011V38.0195H136V42.0168Z"
            fill="#FFF7F7" />
    </g>
    <defs>
        <clipPath id="clip0_141_2596">
            <rect width="136" height="66" fill="white" />
        </clipPath>
    </defs>
</svg>
    