<svg width="44" height="44" viewBox="0 0 44 44" fill="none" xmlns="http://www.w3.org/2000/svg">
    <rect width="44" height="44" rx="22" fill="white" fill-opacity="0.3" />
    <path
        d="M32.0846 12.5969C31.9941 12.5188 31.8841 12.4668 31.7663 12.4467C31.6485 12.4265 31.5274 12.4389 31.4161 12.4825L12.4168 19.9178C12.1857 20.0082 11.9902 20.1712 11.8596 20.3822C11.729 20.5932 11.6704 20.8409 11.6926 21.0881C11.7148 21.3352 11.8166 21.5685 11.9826 21.7529C12.1487 21.9373 12.3701 22.0628 12.6136 22.1106L17.6874 23.1072V28.75C17.6875 29.0116 17.7658 29.2672 17.9122 29.484C18.0586 29.7008 18.2664 29.8689 18.509 29.9667C18.7517 30.0646 19.018 30.0877 19.2738 30.0331C19.5297 29.9785 19.7633 29.8487 19.9449 29.6603L22.4424 27.07L26.3405 30.4872C26.5785 30.6978 26.8852 30.8141 27.203 30.8144C27.3418 30.8141 27.4797 30.7922 27.6118 30.7497C27.8283 30.6812 28.0231 30.5571 28.1768 30.3898C28.3304 30.2225 28.4375 30.0178 28.4874 29.7963L32.2955 13.2409C32.3223 13.1246 32.3168 13.0031 32.2796 12.8896C32.2424 12.7761 32.175 12.6749 32.0846 12.5969ZM12.8171 21.0034C12.8135 20.9938 12.8135 20.9831 12.8171 20.9734C12.8213 20.9702 12.8261 20.9676 12.8311 20.9659L27.8039 15.1047L18.1196 22.0422L12.8311 21.0072L12.8171 21.0034ZM19.1349 28.8784C19.109 28.9053 19.0758 28.9238 19.0394 28.9316C19.003 28.9395 18.9651 28.9363 18.9305 28.9225C18.8959 28.9087 18.8662 28.885 18.8452 28.8543C18.8241 28.8235 18.8127 28.7872 18.8124 28.75V23.8853L21.5958 26.3228L19.1349 28.8784ZM27.3914 29.5422C27.3845 29.5739 27.3692 29.6031 27.3471 29.6269C27.325 29.6506 27.2969 29.668 27.2658 29.6772C27.2341 29.6883 27.1999 29.6907 27.1669 29.6841C27.1339 29.6775 27.1033 29.6622 27.0783 29.6397L19.1536 22.6881L30.9061 14.2656L27.3914 29.5422Z"
        fill="white" />
</svg>
    