<svg width="44" height="44" viewBox="0 0 44 44" fill="none" xmlns="http://www.w3.org/2000/svg">
    <circle cx="22" cy="22" r="22" fill="#686868" />
    <g clip-path="url(#clip0_0_1)">
        <path
            d="M34.4564 15.8103C34.158 14.7042 33.276 13.8332 32.1577 13.5371C30.1309 13 22 13 22 13C22 13 13.8691 13 11.8423 13.5371C10.724 13.8332 9.84205 14.7042 9.54364 15.8103C9 17.8165 9 22 9 22C9 22 9 26.1835 9.54364 28.1897C9.84205 29.2958 10.724 30.1668 11.8423 30.4629C13.8691 31 22 31 22 31C22 31 30.1309 31 32.1577 30.4629C33.276 30.1668 34.158 29.2958 34.4564 28.1897C35 26.1835 35 22 35 22C35 22 35 17.8165 34.4564 15.8103ZM19.3409 25.7989V18.2011L26.1364 22L19.3409 25.7989Z"
            fill="white" />
    </g>
    <defs>
        <clipPath id="clip0_0_1">
            <rect width="26" height="18" fill="white" transform="translate(9 13)" />
        </clipPath>
    </defs>
</svg>
    